<?xml version="1.0" encoding="UTF-8"?>
<svg width="93px" height="22px" viewBox="0 0 93 22" version="1.1" xmlns="http://www.w3.org/2000/svg" xmlns:xlink="http://www.w3.org/1999/xlink">
    <!-- Generator: Sketch 51.3 (57544) - http://www.bohemiancoding.com/sketch -->
    <title>Group</title>
    <desc>Created with Sketch.</desc>
    <defs></defs>
    <g id="Page-1" stroke="none" stroke-width="1" fill="none" fill-rule="evenodd">
        <g id="Desktop-HD-Copy-4" transform="translate(-647.000000, -45.000000)" fill-rule="nonzero">
            <g id="Group" transform="translate(647.000000, 45.000000)">
                <polygon id="Rectangle-6" fill="#333333" points="8.73153807 0 11.7321429 0.0471458732 3.3987878 21.3457712 0 19.7831194"></polygon>
                <polygon id="Rectangle-6-Copy" fill="#333333" points="9.13080662 0.0424660229 11.7277404 0.0424660229 20.7253925 20.8990385 18.2805292 20.8990385"></polygon>
                <polygon id="Rectangle-6" fill="#333333" points="26.5560788 0 29.581044 0.0470878339 20.7271881 20.8980408 18.4505495 19.6048373"></polygon>
                <polygon id="Rectangle-6-Copy" fill="#333333" points="26.7622338 0.0586266013 29.5776913 0.0586266013 38.5054945 20.9361029 36.0476159 21 27.5318969 2.7655655"></polygon>
                <polygon id="Rectangle-6" fill="#333333" points="44.6188459 0 47.6304945 0.0454016053 38.5134881 20.8990385 36.1765869 20.8990385"></polygon>
                <polygon id="Rectangle-6-Copy" fill="#333333" points="44.6708694 0.0503964579 47.6312638 0.0503964579 56.4194338 21.0110624 54.0197989 21.0110624"></polygon>
                <polygon id="Rectangle-6" fill="#333333" points="62.2988858 6.47013485e-15 65.1785714 0 56.419554 21.0118442 54.2486264 19.6253968"></polygon>
                <polygon id="Rectangle-6-Copy" fill="#FBDE6D" points="62.3144148 0.00275264217 65.1719737 0.00275264217 74.0027473 20.4951923 71.6515866 20.4951923"></polygon>
                <polygon id="Rectangle-6" fill="#333333" points="80.3144364 0 83.3282967 0.0470102024 74.3628684 20.4913057 71.6654976 20.4913057"></polygon>
                <polygon id="Rectangle-6-Copy" fill="#333333" points="80.5287359 0.0530090332 83.3249359 0.0530090332 92.766701 19.7486864 89.7799984 20.8351482"></polygon>
            </g>
        </g>
    </g>
</svg>